<svg width="152" height="80" viewBox="0 0 152 80" fill="none" xmlns="http://www.w3.org/2000/svg">
<g clip-path="url(#clip0)">
<path d="M21.9927 77.7567C21.7575 77.5751 21.5949 77.3152 21.5345 77.0241C21.435 76.5698 21.3918 76.1049 21.4059 75.6399V73.1912H22.2767V75.6399C22.2685 75.965 22.29 76.29 22.341 76.6111C22.3628 76.7895 22.4518 76.9528 22.5897 77.0677C22.7581 77.1669 22.9526 77.2125 23.1474 77.1984C23.3448 77.1995 23.5414 77.1743 23.7321 77.1237C23.9359 77.0693 24.1355 77 24.3292 76.9162V73.1932H25.202V77.8833H24.3292V77.574C24.1063 77.7063 23.8691 77.8128 23.6222 77.8916C23.3985 77.9557 23.1666 77.9872 22.9339 77.9849C22.6047 78.0054 22.2771 77.9251 21.9947 77.7546" fill="#919396"/>
<path d="M20.1371 71.4252L20.1309 77.8812L18.5552 77.8791L16.3307 72.2096H16.1814L16.1752 77.877H15.2754L15.2816 71.421L16.8842 71.4231L19.0632 77.0926H19.2332L19.2373 71.4252H20.1371Z" fill="#919396"/>
<path d="M27.184 77.8314C26.9895 77.7095 26.8476 77.5193 26.7859 77.298C26.6949 76.96 26.6544 76.6103 26.6657 76.2604V73.9466H26.0437V73.1953H26.6657V71.8029H27.5385V73.2016H28.9172V73.9528H27.5406V76.1027C27.5367 76.3238 27.5471 76.5449 27.5717 76.7647C27.5849 76.8909 27.6396 77.0092 27.7272 77.1009C27.8382 77.1899 27.9794 77.2323 28.1211 77.2192L28.9172 77.1735L28.9732 77.8874C28.6394 77.9508 28.3011 77.9876 27.9614 77.9974C27.6935 78.0123 27.4263 77.9572 27.186 77.8376" fill="#919396"/>
<path d="M29.7715 73.1995H30.636V73.7909C31.14 73.4567 31.7028 73.2215 32.2946 73.0978V73.9797C32.0371 74.0338 31.783 74.1031 31.5337 74.1873C31.3109 74.2596 31.0922 74.3441 30.8786 74.4404L30.6526 74.5442V77.8936H29.7798L29.7715 73.1995Z" fill="#919396"/>
<path d="M33.0824 71.3359H33.9449V72.2822H33.0824V71.3359ZM33.0824 73.2036H33.9552V77.8936H33.0845L33.0824 73.2036Z" fill="#919396"/>
<path d="M37.716 78.4934C37.8039 78.566 37.8722 78.6595 37.9146 78.7654C37.957 78.8712 37.9721 78.9861 37.9586 79.0993C37.9586 79.7012 37.6476 80 37.0298 80C36.7947 80.0005 36.5598 79.9846 36.327 79.9523L36.2046 79.9253L36.2419 79.3899C36.3933 79.4023 36.5799 79.4086 36.8059 79.4086C37.0692 79.4086 37.1998 79.3027 37.1998 79.089C37.1998 78.8752 37.0692 78.8088 36.8059 78.8088H36.47V77.9787C36.2377 77.9649 36.0121 77.8959 35.8116 77.7775C35.6112 77.6592 35.4418 77.4949 35.3173 77.2981C35.0851 76.9121 34.9711 76.3289 34.9711 75.5486C34.9711 74.7684 35.1079 74.1707 35.3857 73.7411C35.6635 73.3116 36.1507 73.0999 36.8618 73.102C37.0565 73.1013 37.2511 73.1124 37.4444 73.1352C37.6517 73.1559 37.9275 73.2016 38.2737 73.27L38.2447 73.9652C37.7139 73.9134 37.3387 73.8885 37.121 73.8885C36.8562 73.8744 36.5921 73.9257 36.3518 74.0379C36.1627 74.1495 36.0256 74.3316 35.9704 74.5442C35.8882 74.876 35.8519 75.2174 35.8626 75.559C35.8518 75.8909 35.8874 76.2227 35.9683 76.5448C36.0263 76.7554 36.1619 76.9363 36.3477 77.0511C36.5958 77.1717 36.8705 77.2267 37.1459 77.2109L38.2509 77.1279L38.2799 77.8418C37.8189 77.9303 37.3517 77.9831 36.8826 77.9995V78.3191C37.1695 78.3006 37.456 78.3601 37.7119 78.4913" fill="#919396"/>
<path d="M39.3517 77.628C39.1029 77.3259 38.9796 76.9395 39.0076 76.5489C39.0076 76.0854 39.1264 75.7458 39.3641 75.53C39.6005 75.3224 39.9861 75.1834 40.4982 75.1315L41.8292 75.0132V74.648C41.8496 74.4331 41.7857 74.2188 41.6509 74.0503C41.5808 73.9852 41.498 73.9353 41.4078 73.9035C41.3176 73.8717 41.2218 73.8588 41.1264 73.8656C40.5181 73.8705 39.9104 73.9079 39.3061 73.9777L39.2791 73.3385C39.884 73.1904 40.5038 73.1125 41.1264 73.1061C41.6779 73.1061 42.0759 73.2306 42.3268 73.4796C42.5776 73.7287 42.7 74.1146 42.7 74.648V76.9079C42.7031 77.0162 42.7485 77.119 42.8264 77.1943C42.9248 77.2721 43.0437 77.3196 43.1685 77.3313L43.1395 78.0057C42.9082 78.0113 42.6774 77.9812 42.4553 77.9165C42.2723 77.8596 42.1029 77.7657 41.9577 77.6405C41.4596 77.8756 40.9163 77.9995 40.3655 78.0036C40.1796 78.0164 39.9931 77.9895 39.8183 77.9248C39.6435 77.86 39.4845 77.7589 39.3517 77.628V77.628ZM40.8195 72.0249C40.6332 71.9326 40.4351 71.8663 40.2308 71.8277C40.0119 71.8529 39.8058 71.9441 39.6399 72.0892L39.5176 72.1743L39.3102 71.6472C39.444 71.4977 39.6 71.3696 39.7726 71.2674C39.9044 71.1859 40.0551 71.1401 40.21 71.1346C40.4415 71.1677 40.6662 71.2377 40.8755 71.3421C41.0595 71.4357 41.2545 71.5054 41.456 71.5497C41.6682 71.5204 41.8672 71.4295 42.0282 71.2882L42.1506 71.2031L42.3454 71.7385C42.2182 71.8802 42.0717 72.0032 41.9101 72.1037C41.7838 72.1901 41.6358 72.239 41.483 72.2449C41.2499 72.2191 41.0239 72.1486 40.8175 72.0373L40.8195 72.0249ZM41.6281 77.1051L41.8251 77.0407V75.6607L40.606 75.7728C40.4057 75.7785 40.2142 75.8566 40.067 75.9927C39.9409 76.143 39.8784 76.3366 39.8928 76.5323C39.8928 77.0324 40.1001 77.2815 40.5148 77.2835C40.8903 77.2839 41.2634 77.2236 41.6198 77.1051" fill="#919396"/>
<path d="M44.2177 77.4205C43.8984 77.0304 43.7395 76.4161 43.7409 75.5777C43.7422 74.7393 43.9053 74.1133 44.2301 73.6996C44.5536 73.3074 45.076 73.1102 45.7954 73.1123C46.5148 73.1144 47.0393 73.3198 47.3648 73.7079C47.6903 74.096 47.8479 74.731 47.8458 75.5756C47.8438 76.4202 47.6862 77.0283 47.3669 77.4143C47.0476 77.8003 46.521 78.0036 45.7913 78.0036C45.0615 78.0036 44.5349 77.7961 44.2177 77.4143V77.4205ZM46.4982 77.0843C46.6754 76.9615 46.801 76.7775 46.8507 76.5676C46.9296 76.2424 46.9644 75.908 46.9543 75.5735C46.9667 75.2245 46.9312 74.8753 46.8486 74.5359C46.7983 74.3235 46.6713 74.1372 46.492 74.013C46.2755 73.9118 46.0395 73.8593 45.8006 73.8593C45.5617 73.8593 45.3257 73.9118 45.1092 74.013C44.9264 74.1355 44.7974 74.3233 44.7484 74.538C44.6075 75.203 44.6075 75.8902 44.7484 76.5551C44.7975 76.7675 44.9249 76.9535 45.105 77.076C45.3235 77.1818 45.5631 77.2368 45.8058 77.2368C46.0485 77.2368 46.2881 77.1818 46.5065 77.076" fill="#919396"/>
<path d="M48.8532 76.8208L49.8193 76.8228L49.1227 79.0641H48.4095L48.8532 76.8208Z" fill="#919396"/>
<path d="M53.0474 73.2223H53.9036V73.5315C54.1176 73.4014 54.3457 73.2963 54.5836 73.2181C54.8005 73.1514 55.0264 73.1185 55.2533 73.1206C55.842 73.1206 56.2712 73.3157 56.5428 73.7079C56.8144 74.1001 56.9574 74.7165 56.9574 75.5611C56.9735 76.0469 56.9033 76.5317 56.7501 76.993C56.6335 77.3271 56.397 77.6059 56.0867 77.7753C55.7074 77.9536 55.2904 78.037 54.8718 78.0182C54.5518 78.0144 54.2328 77.9831 53.9181 77.9248V79.9606H53.0453L53.0474 73.2223ZM55.7861 76.8643C55.9713 76.6028 56.0639 76.1747 56.0639 75.5798C56.0639 74.9849 55.983 74.5594 55.8213 74.3035C55.7425 74.175 55.6303 74.0704 55.4966 74.0009C55.3629 73.9315 55.2128 73.8997 55.0625 73.9092C54.8917 73.9111 54.7218 73.9341 54.5567 73.9777C54.3927 74.0187 54.2325 74.0735 54.0777 74.1416L53.9181 74.2267V77.1632C54.222 77.2141 54.5287 77.246 54.8365 77.2586C55.2857 77.2586 55.6029 77.1272 55.7881 76.8643" fill="#919396"/>
<path d="M58.0667 77.6467C57.8186 77.3442 57.6955 76.9581 57.7225 76.5676C57.7225 76.1055 57.8414 75.7659 58.0791 75.5487C58.3155 75.3411 58.7011 75.2021 59.2132 75.1502L60.5442 75.0319V74.6646C60.5641 74.4505 60.5002 74.2369 60.3659 74.069C60.2958 74.0039 60.213 73.954 60.1228 73.9222C60.0326 73.8904 59.9368 73.8775 59.8414 73.8843C59.2337 73.8892 58.6268 73.9267 58.0232 73.9964L57.9941 73.3572C58.599 73.2091 59.2188 73.1312 59.8414 73.1248C60.3929 73.1248 60.7909 73.2493 61.0418 73.4963C61.2926 73.7432 61.415 74.1333 61.415 74.6667V76.9266C61.4181 77.0349 61.4635 77.1377 61.5414 77.213C61.64 77.2905 61.7587 77.338 61.8835 77.35L61.8545 78.0244C61.6232 78.03 61.3924 77.9999 61.1703 77.9352C60.9873 77.8783 60.8179 77.7844 60.6727 77.6592C60.1769 77.8956 59.6358 78.0216 59.0867 78.0286C58.9008 78.0413 58.7143 78.0145 58.5395 77.9497C58.3648 77.885 58.2057 77.7838 58.0729 77.6529L58.0667 77.6467ZM60.3535 77.1196L60.5504 77.0553V75.6752L59.3314 75.7873C59.131 75.793 58.9395 75.8712 58.7923 76.0073C58.6659 76.1574 58.6034 76.3511 58.6182 76.5468C58.6182 77.047 58.8255 77.296 59.2401 77.2981C59.6163 77.2984 59.9902 77.2381 60.3472 77.1196" fill="#919396"/>
<path d="M62.719 71.365H63.5815V72.3113H62.719V71.365ZM62.719 73.2327H63.5898V77.9248H62.719V73.2327Z" fill="#919396"/>
<path d="M65.7977 75.5797L64.3942 73.2327H65.3313L66.3513 74.953L67.3838 73.2347L68.3312 73.2368L66.8841 75.5528L68.3167 77.9289L67.3692 77.9268L66.3492 76.2189L65.3271 77.9248H64.39L65.7977 75.5797Z" fill="#919396"/>
<path d="M69.1917 77.6571C68.9437 77.3544 68.8206 76.9684 68.8475 76.578C68.8475 76.1145 68.9664 75.7749 69.2041 75.559C69.5313 75.3112 69.928 75.1725 70.3381 75.1627L71.6712 75.0423V74.6771C71.6917 74.4622 71.6277 74.2478 71.4929 74.0794C71.4225 74.0147 71.3397 73.965 71.2496 73.9333C71.1594 73.9015 71.0638 73.8884 70.9684 73.8947C70.3608 73.8996 69.7538 73.937 69.1502 74.0068L69.1212 73.3676C69.726 73.2195 70.3458 73.1415 70.9684 73.1352C71.5178 73.1352 71.9179 73.2597 72.1688 73.5087C72.4197 73.7577 72.542 74.1437 72.542 74.6771V76.937C72.5452 77.0453 72.5906 77.1481 72.6684 77.2234C72.7669 77.3011 72.8857 77.3487 73.0105 77.3603L72.9774 78.0286C72.746 78.0323 72.5154 78.0016 72.2932 77.9372C72.1104 77.8813 71.9415 77.7873 71.7977 77.6612C71.2987 77.8962 70.7548 78.0201 70.2034 78.0244C70.0174 78.0376 69.8308 78.0109 69.656 77.9461C69.4812 77.8814 69.3221 77.78 69.1896 77.6488L69.1917 77.6571ZM70.6574 72.0457C70.4716 71.9498 70.2735 71.88 70.0686 71.8382C69.8499 71.8641 69.6441 71.9552 69.4778 72.0996L69.3554 72.1847L69.1481 71.6597C69.282 71.5089 69.4387 71.3801 69.6125 71.2778C69.7439 71.1969 69.8938 71.1512 70.0479 71.145C70.2794 71.1781 70.5041 71.2481 70.7134 71.3525C70.8979 71.4422 71.093 71.5084 71.2939 71.5497C71.5065 71.5218 71.7058 71.4307 71.8661 71.2882L71.9884 71.2052L72.1854 71.7385C72.0571 71.8799 71.9098 72.0028 71.7479 72.1038C71.6218 72.1904 71.4737 72.2393 71.3209 72.2449C71.0878 72.2191 70.8618 72.1487 70.6553 72.0374L70.6574 72.0457ZM71.4681 77.1051L71.665 77.0407V75.6607L70.446 75.7728C70.2456 75.7785 70.0541 75.8566 69.9069 75.9928C69.7809 76.143 69.7184 76.3366 69.7328 76.5323C69.7328 77.0331 69.9401 77.2836 70.3547 77.2836C70.731 77.2841 71.1048 77.2238 71.4618 77.1051" fill="#919396"/>
<path d="M74.0574 77.4496C73.7381 77.0594 73.5792 76.4451 73.5806 75.6067C73.5806 74.7497 73.7444 74.123 74.0699 73.739C74.3953 73.3551 74.9157 73.1476 75.6351 73.1497C76.3545 73.1517 76.8791 73.3572 77.2046 73.7473C77.53 74.1375 77.6876 74.7684 77.6876 75.6151C77.6876 76.4617 77.5259 77.0677 77.2066 77.4537C76.8873 77.8397 76.3628 78.0431 75.631 78.0431C74.8991 78.0431 74.3746 77.8459 74.0574 77.4537V77.4496ZM76.3379 77.1237C76.5151 77.0019 76.6408 76.8185 76.6904 76.6091C76.769 76.2831 76.8039 75.9481 76.7941 75.613C76.8054 75.2639 76.7698 74.9149 76.6883 74.5754C76.6387 74.3632 76.5115 74.1774 76.3317 74.0545C76.1211 73.94 75.8828 73.8861 75.6434 73.8988C75.4023 73.8858 75.1621 73.9389 74.9489 74.0524C74.7662 74.175 74.6371 74.3628 74.5882 74.5774C74.5051 74.9133 74.4681 75.2589 74.4783 75.6047C74.4688 75.9378 74.5036 76.2707 74.5819 76.5946C74.6302 76.8073 74.7568 76.994 74.9365 77.1175C75.1515 77.2347 75.3948 77.29 75.6393 77.2773C75.8826 77.2919 76.1251 77.2364 76.3379 77.1175" fill="#919396"/>
<path d="M83.6273 77.7463C83.423 77.845 83.209 77.9222 82.9888 77.9767C82.7799 78.0234 82.5664 78.0464 82.3523 78.0451C81.7303 78.0451 81.2867 77.8563 81.013 77.4807C80.7393 77.1051 80.5984 76.4825 80.5984 75.613C80.5813 75.1195 80.6551 74.6271 80.816 74.1603C80.9435 73.8216 81.1957 73.5446 81.5209 73.3863C81.9413 73.2085 82.3961 73.127 82.852 73.1476L84.5105 73.2534V79.9896H83.6377L83.6273 77.7463ZM83.4781 77.0905L83.6294 77.0345V73.9652C83.3714 73.9329 83.1119 73.9135 82.852 73.9071C82.5646 73.8918 82.2783 73.9534 82.0227 74.0856C81.821 74.2101 81.6731 74.4055 81.608 74.6335C81.5169 74.9552 81.4756 75.2891 81.4857 75.6234C81.4857 76.2189 81.5666 76.6381 81.7283 76.8851C81.8216 77.0146 81.9474 77.1172 82.093 77.1824C82.2387 77.2476 82.3989 77.2732 82.5576 77.2566C82.8742 77.2533 83.1881 77.1972 83.4864 77.0905" fill="#919396"/>
<path d="M86.2458 77.821C86.0097 77.6403 85.8469 77.3801 85.7877 77.0885C85.6882 76.6341 85.6444 76.1693 85.657 75.7043V73.2555H86.5278V75.7043C86.5201 76.0294 86.5423 76.3545 86.5941 76.6755C86.6161 76.8532 86.7051 77.0158 86.8429 77.13C87.0102 77.23 87.2041 77.2764 87.3986 77.2628C87.5966 77.2639 87.7939 77.2388 87.9853 77.1881C88.1885 77.1339 88.3874 77.0645 88.5803 76.9806V73.2659H89.4511V77.958H88.5803V77.6488C88.3567 77.7817 88.1189 77.8889 87.8713 77.9684C87.6476 78.0328 87.4156 78.0636 87.1829 78.0597C86.8536 78.0776 86.5266 77.9944 86.2458 77.821" fill="#919396"/>
<path d="M90.9313 77.4952C90.6245 77.1238 90.4731 76.5323 90.4731 75.7271C90.4731 74.8576 90.639 74.2122 90.9666 73.7889C91.2941 73.3655 91.7959 73.1559 92.4925 73.1663C93.7654 73.1663 94.4019 73.8926 94.4019 75.3453L94.3439 75.9824H91.3543C91.3476 76.2498 91.3919 76.516 91.4849 76.7668C91.5594 76.9451 91.6998 77.0879 91.8767 77.1653C92.1218 77.2594 92.3837 77.3018 92.6459 77.2898C92.8408 77.2898 93.0605 77.2898 93.3031 77.2752C93.5457 77.2607 93.7654 77.2524 93.9582 77.2337L94.2215 77.2068L94.2402 77.8812C93.6553 77.991 93.0625 78.0534 92.4676 78.068C91.7482 78.068 91.2361 77.8812 90.9313 77.5077V77.4952ZM93.5312 75.3017C93.5312 74.7953 93.4517 74.4349 93.2927 74.2205C93.1941 74.1071 93.0698 74.019 92.9302 73.9634C92.7907 73.9078 92.6399 73.8864 92.4904 73.9009C92.3309 73.8872 92.1703 73.9099 92.0209 73.9674C91.8715 74.0249 91.7371 74.1158 91.6279 74.233C91.4455 74.4557 91.3515 74.8113 91.346 75.2996L93.5312 75.3017Z" fill="#919396"/>
<path d="M97.5076 73.2659H98.37V73.5751C98.6004 73.4412 98.8452 73.334 99.0998 73.2555C99.3259 73.1923 99.5596 73.1609 99.7943 73.1621C100.12 73.1445 100.444 73.2262 100.723 73.3966C100.962 73.5762 101.131 73.8339 101.2 74.125C101.305 74.5624 101.352 75.0118 101.339 75.4615V77.9517H100.466V75.476C100.474 75.1693 100.45 74.8626 100.396 74.5608C100.368 74.3774 100.275 74.21 100.134 74.0897C99.9679 73.9829 99.7718 73.932 99.5746 73.9445C99.219 73.9471 98.8672 74.0175 98.538 74.152L98.3804 74.2267V77.9434H97.5076V73.2659Z" fill="#919396"/>
<path d="M102.782 77.4786C102.465 77.0884 102.305 76.4721 102.305 75.6337C102.305 74.7953 102.471 74.152 102.796 73.766C103.122 73.38 103.642 73.1766 104.362 73.1766C105.081 73.1766 105.605 73.3842 105.931 73.7743C106.256 74.1644 106.414 74.7953 106.412 75.642C106.41 76.4887 106.25 77.0947 105.933 77.4827C105.616 77.8708 105.087 78.0721 104.357 78.0721C103.628 78.0721 103.101 77.875 102.782 77.4827V77.4786ZM105.062 77.1528C105.239 77.0296 105.364 76.8457 105.415 76.636C105.494 76.3108 105.529 75.9765 105.518 75.642C105.531 75.2929 105.495 74.9438 105.413 74.6044C105.36 74.3923 105.231 74.2073 105.05 74.0856C104.834 73.9831 104.598 73.93 104.358 73.93C104.119 73.93 103.883 73.9831 103.667 74.0856C103.484 74.2075 103.354 74.3956 103.306 74.6106C103.165 75.2756 103.165 75.9628 103.306 76.6277C103.356 76.8398 103.483 77.0256 103.663 77.1486C103.878 77.2668 104.121 77.3229 104.366 77.3105C104.609 77.324 104.851 77.2687 105.064 77.1507" fill="#919396"/>
<path d="M107.548 77.9206L107.266 77.8729L107.306 77.1217C107.842 77.209 108.384 77.2631 108.927 77.2835C109.186 77.2994 109.444 77.2479 109.677 77.1341C109.76 77.0841 109.828 77.0121 109.873 76.926C109.917 76.84 109.937 76.7432 109.93 76.6464C109.935 76.5792 109.926 76.5117 109.905 76.4479C109.883 76.3841 109.849 76.3253 109.804 76.275C109.713 76.1873 109.602 76.1232 109.48 76.0882C109.296 76.0353 109.108 75.9957 108.918 75.9699L108.692 75.9326C108.404 75.8961 108.12 75.8264 107.847 75.725C107.65 75.6491 107.482 75.5152 107.364 75.3411C107.24 75.131 107.181 74.8893 107.194 74.6459C107.194 73.6768 107.789 73.1933 108.979 73.1933C109.45 73.2031 109.92 73.2503 110.384 73.3344L110.656 73.3925L110.635 74.123C110.102 74.0375 109.564 73.9869 109.024 73.9715C108.386 73.9715 108.066 74.1652 108.066 74.5525C108.062 74.6137 108.071 74.6751 108.092 74.7327C108.113 74.7902 108.146 74.8427 108.189 74.8866C108.278 74.9687 108.385 75.0285 108.502 75.061C108.63 75.0983 108.813 75.1377 109.051 75.1834C109.095 75.1834 109.182 75.2042 109.312 75.2311C109.61 75.279 109.901 75.359 110.181 75.4698C110.375 75.5495 110.54 75.689 110.65 75.8682C110.762 76.0889 110.814 76.3349 110.803 76.5821C110.803 77.1009 110.652 77.4807 110.351 77.7214C110.05 77.9621 109.587 78.0825 108.964 78.0825C108.489 78.0693 108.015 78.0186 107.548 77.931" fill="#919396"/>
<path d="M113.89 73.2804H114.753V73.5896C114.966 73.4632 115.192 73.3595 115.427 73.2804C115.639 73.2125 115.861 73.1782 116.084 73.1788C116.314 73.1764 116.543 73.2165 116.76 73.297C116.952 73.3654 117.121 73.4871 117.247 73.6478C117.51 73.5056 117.788 73.3929 118.076 73.3116C118.37 73.2249 118.675 73.1809 118.982 73.1808C119.302 73.1626 119.619 73.2446 119.89 73.4153C120.126 73.5987 120.292 73.8582 120.359 74.15C120.465 74.5851 120.511 75.0325 120.498 75.4802V77.9704H119.625V75.503C119.634 75.1964 119.611 74.8896 119.556 74.5878C119.529 74.4067 119.44 74.2405 119.305 74.1168C119.147 74.01 118.957 73.9589 118.766 73.9715C118.583 73.9726 118.4 73.9927 118.221 74.0317C118.052 74.0671 117.886 74.1185 117.726 74.1852L117.556 74.2599C117.637 74.6809 117.671 75.1097 117.657 75.5383V77.9767H116.764V75.5549C116.771 75.2333 116.75 74.9117 116.699 74.5941C116.676 74.4097 116.588 74.2397 116.451 74.1147C116.293 74.0057 116.103 73.9537 115.912 73.9673C115.73 73.9686 115.549 73.9908 115.373 74.0337C115.214 74.0689 115.059 74.1189 114.91 74.1832L114.759 74.2579V77.9746H113.888L113.89 73.2804Z" fill="#919396"/>
<path d="M121.936 77.4973C121.617 77.1071 121.459 76.4928 121.459 75.6545C121.459 74.8161 121.623 74.1707 121.949 73.7764C122.274 73.3821 122.797 73.187 123.516 73.187C124.235 73.187 124.76 73.3945 125.085 73.7847C125.411 74.1748 125.566 74.8078 125.566 75.6524C125.566 76.497 125.405 77.105 125.085 77.4931C124.766 77.8812 124.242 78.0825 123.51 78.0825C122.778 78.0825 122.266 77.8853 121.936 77.4931V77.4973ZM124.217 77.1631C124.393 77.0403 124.518 76.8561 124.567 76.6464C124.648 76.3215 124.683 75.987 124.673 75.6524C124.685 75.3032 124.649 74.954 124.565 74.6148C124.516 74.4018 124.389 74.2151 124.208 74.0918C123.993 73.9894 123.757 73.9362 123.518 73.9362C123.279 73.9362 123.043 73.9894 122.828 74.0918C122.644 74.2141 122.515 74.4019 122.465 74.6168C122.325 75.282 122.325 75.9688 122.465 76.634C122.513 76.8461 122.64 77.0321 122.819 77.1548C123.035 77.273 123.279 77.329 123.524 77.3167C123.768 77.33 124.01 77.2747 124.223 77.1569" fill="#919396"/>
<path d="M126.077 73.2929L126.995 73.295L127.986 77.2358L128.305 77.2379L129.34 73.297H130.229L128.969 77.9891L127.329 77.987L126.077 73.2929Z" fill="#919396"/>
<path d="M131.181 77.5346C130.874 77.1632 130.723 76.5717 130.723 75.7665C130.723 74.8977 130.887 74.2516 131.216 73.8283C131.546 73.4132 132.045 73.1953 132.742 73.2057C134.016 73.2057 134.653 73.932 134.651 75.3847L134.595 76.0218H131.604C131.597 76.2885 131.641 76.554 131.734 76.8041C131.81 76.9832 131.951 77.1265 132.128 77.2047C132.374 77.2971 132.635 77.3388 132.897 77.3271C133.09 77.3271 133.312 77.3271 133.552 77.3126C133.793 77.298 134.015 77.2897 134.208 77.2711L134.471 77.2441L134.49 77.9185C133.905 78.0283 133.312 78.0908 132.717 78.1053C131.998 78.1053 131.488 77.9185 131.181 77.545V77.5346ZM133.778 75.3307C133.778 74.8244 133.7 74.464 133.542 74.2495C133.443 74.1362 133.319 74.048 133.18 73.9925C133.04 73.9369 132.889 73.9154 132.74 73.93C132.58 73.9161 132.419 73.9391 132.27 73.997C132.12 74.0549 131.986 74.1462 131.877 74.2641C131.697 74.484 131.602 74.8389 131.595 75.3287L133.778 75.3307Z" fill="#919396"/>
<path d="M135.663 76.8021H136.625V77.9933H135.667L135.663 76.8021ZM135.678 71.5393H136.625L136.546 75.7894H135.758L135.678 71.5393Z" fill="#919396"/>
<path d="M112.669 23.3442C116.293 8.55824 133.156 6.71128 139.602 0C156.113 26.0939 135.074 48.2013 121.403 53.1984C136.689 39.531 135.282 22.3938 131.786 14.4125C127.698 13.4039 117.547 16.0498 112.669 23.3359" fill="#0DB04B"/>
<path d="M113.03 39.6659C112.405 40.5222 112.138 41.5879 112.284 42.6379C112.43 43.6879 112.978 44.6401 113.812 45.2932C114.646 45.9464 115.701 46.2495 116.755 46.1385C117.808 46.0275 118.777 45.5111 119.457 44.6983C120.121 43.8398 120.422 42.754 120.293 41.6756C120.164 40.5972 119.616 39.6129 118.768 38.9354C118.344 38.6037 117.859 38.3593 117.34 38.2164C116.821 38.0736 116.279 38.0349 115.745 38.1029C115.211 38.1708 114.696 38.3439 114.229 38.6121C113.762 38.8804 113.353 39.2385 113.026 39.6659" fill="#0DB04B"/>
<path d="M113.903 49.5834C113.503 50.1169 113.327 50.7851 113.412 51.4463C113.496 52.1075 113.834 52.7099 114.355 53.1258C114.879 53.5314 115.543 53.7121 116.2 53.628C116.858 53.544 117.455 53.2021 117.86 52.6776C118.069 52.422 118.224 52.1271 118.316 51.8104C118.408 51.4936 118.436 51.1616 118.397 50.8339C118.358 50.5063 118.254 50.1898 118.091 49.9034C117.927 49.6169 117.708 49.3662 117.446 49.1663C117.186 48.9585 116.888 48.8043 116.569 48.7126C116.249 48.6209 115.915 48.5936 115.584 48.6322C115.254 48.6708 114.935 48.7745 114.645 48.9375C114.356 49.1004 114.101 49.3193 113.896 49.5814" fill="#0DB04B"/>
<path d="M112.356 26.9427C111.932 27.484 111.62 28.1036 111.435 28.766C111.251 29.4284 111.199 30.1206 111.282 30.8031C111.365 31.4857 111.581 32.1452 111.919 32.744C112.256 33.3428 112.709 33.8692 113.249 34.2931C113.79 34.717 114.409 35.0302 115.071 35.2146C115.733 35.3991 116.424 35.4513 117.106 35.3683C117.788 35.2852 118.447 35.0685 119.045 34.7306C119.643 34.3926 120.169 33.9401 120.593 33.3987C121.448 32.3054 121.834 30.9167 121.667 29.5382C121.499 28.1598 120.792 26.9044 119.699 26.0483C118.607 25.1921 117.22 24.8054 115.843 24.9731C114.465 25.1409 113.211 25.8493 112.356 26.9427Z" fill="#0DB04B"/>
<path d="M75.7284 54.1365C75.3397 54.3509 74.8985 54.4516 74.4554 54.427C73.5349 54.427 72.9502 53.9248 72.9523 52.7544C71.9696 53.904 70.6531 54.4145 69.15 54.4145C67.1846 54.4145 65.5779 53.5326 65.58 51.3785C65.58 48.9318 67.3982 48.4088 69.2392 48.0581C71.2025 47.6825 72.8735 47.8091 72.8756 46.4726C72.8756 44.9245 71.6027 44.6734 70.4748 44.6713C68.9697 44.6713 67.8626 45.13 67.7796 46.7175H66.005C66.1107 44.0426 68.1798 43.1025 70.5826 43.1046C72.5252 43.1046 74.6358 43.5487 74.6337 46.0784V51.64C74.6337 52.47 74.6337 52.8519 75.1935 52.8519C75.3799 52.8515 75.5647 52.817 75.7387 52.7502L75.7284 54.1365ZM72.8507 48.5915C72.1624 49.0937 70.8252 49.1123 69.6331 49.3219C68.441 49.5315 67.4604 49.9445 67.4604 51.2623C67.4604 52.4327 68.4617 52.8519 69.546 52.854C71.8867 52.854 72.8487 51.4013 72.8507 50.4114V48.5915Z" fill="#919396"/>
<path d="M86.6957 53.2669C86.6957 56.7803 85.0807 58.5775 81.6765 58.5733C79.6489 58.5733 77.3227 57.7536 77.2087 55.392H78.9896C79.0725 56.6869 80.6171 57.1497 81.7864 57.1518C84.1042 57.1518 85.0247 55.4812 85.0289 53.0553V52.3455H84.9874C84.4007 53.6633 82.9805 54.3087 81.6226 54.3066C78.407 54.3066 76.8003 51.7728 76.8024 48.8218C76.8024 46.2734 78.0608 43.117 81.7988 43.1212C83.1588 43.1212 84.3696 43.7292 85.0164 44.9225H85.0351V43.3723H86.7061L86.6957 53.2669ZM84.9439 48.5603C84.9439 46.6573 84.1146 44.69 81.8776 44.688C79.5971 44.688 78.6807 46.5557 78.6786 48.6164C78.6786 50.5609 79.3856 52.7378 81.7242 52.7398C84.0628 52.7419 84.9439 50.5878 84.9439 48.5603" fill="#919396"/>
<path d="M89.3142 43.3722H90.9852V45.655H91.0267C91.885 43.9222 93.0771 43.063 94.999 43.1294V45.0117C92.1379 45.0117 91.0909 46.6386 91.0889 49.3696V54.18H89.3121L89.3142 43.3722Z" fill="#919396"/>
<path d="M100.615 43.1398C104.04 43.1398 105.856 45.6301 105.852 48.8114C105.848 51.9927 104.03 54.456 100.605 54.454C97.18 54.4519 95.368 51.9616 95.368 48.801C95.368 45.6404 97.1904 43.1356 100.617 43.1398H100.615ZM100.607 52.8934C102.473 52.8934 103.972 51.4407 103.974 48.8197C103.976 46.1987 102.473 44.7211 100.615 44.719C98.7577 44.717 97.2526 46.1717 97.2484 48.8135C97.2443 51.4552 98.7474 52.8913 100.607 52.8934Z" fill="#919396"/>
<path d="M11.2306 11.9637H0.0352447V15.1844V17.2099L0.0124393 29.7982V35.0444L0 43.476H5.39037V35.0444H11.212C13.7073 35.0433 16.1003 34.0517 17.8663 32.2871C19.6323 30.5225 20.6272 28.1289 20.6327 25.6311V21.3811C20.6288 18.8857 19.6372 16.4935 17.875 14.7284C16.1128 12.9633 13.7236 11.9692 11.2306 11.9637V11.9637ZM15.3771 25.6394C15.3743 26.7459 14.9335 27.8062 14.1513 28.5881C13.369 29.3699 12.3091 29.8095 11.2037 29.8106H5.38415L5.39658 17.2099H11.2161C12.3215 17.2132 13.3806 17.6549 14.1613 18.4383C14.942 19.2217 15.3807 20.2829 15.3812 21.3894L15.3771 25.6394Z" fill="#006BB0"/>
<path d="M34.8798 11.9865H32.0664C29.5709 11.9865 27.1774 12.9773 25.4108 14.7417C23.6443 16.506 22.6492 18.8997 22.6437 21.3976L22.6292 34.98H28.6083L28.6207 21.3976C28.6229 20.2904 29.0638 19.2293 29.8465 18.4469C30.6293 17.6646 31.69 17.2249 32.7962 17.2244H34.8694L34.8798 11.9865Z" fill="#006BB0"/>
<path d="M71.3559 11.8537H69.6185C67.2193 11.8544 64.9122 12.7788 63.175 14.4353C61.4411 12.7747 59.1352 11.8458 56.7356 11.8412H54.9961C52.4918 11.8517 50.0938 12.8556 48.3279 14.633C46.5619 16.4104 45.5721 18.8162 45.5754 21.323L45.563 35.0029H51.5401L51.5546 21.323C51.5529 20.2124 51.9914 19.1466 52.7737 18.3592C53.5561 17.5718 54.6185 17.1271 55.728 17.1227H55.9954C57.1054 17.1293 58.1675 17.5763 58.9487 18.3656C59.7299 19.155 60.1664 20.2222 60.1626 21.3333L60.1481 35.0132H60.1833H66.1272H66.1583L66.1728 21.3333C66.1717 20.2224 66.6106 19.1563 67.3932 18.3687C68.1758 17.581 69.2385 17.1359 70.3483 17.131H70.6178C71.7271 17.1387 72.7881 17.5862 73.5684 18.3754C74.3487 19.1646 74.7847 20.2313 74.7808 21.3416L74.7684 35.0215H80.7455L80.76 21.3416C80.7683 18.8345 79.7829 16.4264 78.02 14.6455C76.2571 12.8645 73.8605 11.8561 71.3559 11.8412" fill="#006BB0"/>
<path d="M42.8617 11.9927H37.5833V34.9945H42.8617V11.9927Z" fill="#006BB0"/>
<path d="M42.8783 4.27289H37.5999V9.83865H42.8783V4.27289Z" fill="#006BB0"/>
<path fill-rule="evenodd" clip-rule="evenodd" d="M100.735 21.0366C99.9414 18.206 97.4183 16.1307 94.408 16.1266C91.3977 16.1224 88.8705 18.2018 88.0681 21.0241L100.735 21.0366ZM104.169 35.0506V29.9206L93.9706 29.8999C91.4661 29.6363 89.2955 28.5614 88.0329 25.2451L104.322 25.2659C105.297 25.2929 106.006 24.8239 106.161 23.861C106.771 20.2438 103.578 11.6213 94.4122 11.4138C90.2886 11.4802 83.3474 13.8854 82.5948 23.2156C82.7047 31.9315 90.641 35.2975 94.3832 35.0444L104.169 35.0506Z" fill="#006BB0"/>
<path d="M148.84 2.7175e-06C148.215 -0.000817626 147.603 0.18411 147.082 0.531399C146.561 0.878688 146.155 1.37274 145.915 1.95108C145.675 2.52943 145.611 3.16608 145.733 3.78054C145.854 4.395 146.154 4.95966 146.596 5.40312C147.038 5.84659 147.602 6.14894 148.215 6.27193C148.829 6.39493 149.465 6.33305 150.043 6.09412C150.622 5.85519 151.116 5.44995 151.465 4.92963C151.813 4.40931 151.999 3.79728 152 3.17095C152 2.3314 151.667 1.52611 151.075 0.931681C150.483 0.337251 149.679 0.0022005 148.84 2.7175e-06V2.7175e-06ZM148.011 5.74631H148.049V3.69183H148.629C149.185 3.71258 149.44 3.95954 149.579 4.61738C149.65 4.97935 149.745 5.33633 149.863 5.68613C149.273 5.92939 148.615 5.95295 148.009 5.75253L148.011 5.74631ZM148.051 3.22491V1.49002C148.247 1.44726 148.448 1.42845 148.65 1.43398C149.299 1.43398 149.742 1.70999 149.742 2.32426C149.742 2.86797 149.328 3.22906 148.668 3.22906L148.051 3.22491ZM150.391 5.39559C150.325 5.16109 150.248 4.84358 150.157 4.45137C150.045 3.95539 149.825 3.62127 149.46 3.49053V3.46771C149.721 3.3915 149.95 3.23171 150.112 3.01283C150.274 2.79394 150.36 2.52802 150.356 2.25577C150.362 2.08705 150.331 1.91905 150.267 1.763C150.203 1.60696 150.106 1.46648 149.983 1.35098C149.686 1.0812 149.272 0.960833 148.608 0.960833C148.213 0.957603 147.818 0.990248 147.429 1.05837V5.4869C146.93 5.1825 146.542 4.72494 146.324 4.18236C146.106 3.63978 146.069 3.0412 146.218 2.47575C146.368 1.9103 146.695 1.40823 147.153 1.0443C147.61 0.680367 148.173 0.474039 148.757 0.45604C149.341 0.43804 149.915 0.609331 150.394 0.944407C150.873 1.27948 151.231 1.76042 151.414 2.31561C151.598 2.87079 151.598 3.47053 151.413 4.02551C151.229 4.5805 150.87 5.06104 150.391 5.39559" fill="#919396"/>
</g>
<defs>
<clipPath id="clip0">
<rect width="152" height="80" fill="white"/>
</clipPath>
</defs>
</svg>
